<svg id="visual" viewBox="0 0 900 600" width="900" height="600" xmlns="http://www.w3.org/2000/svg" xmlns:xlink="http://www.w3.org/1999/xlink" version="1.1"><rect x="0" y="0" width="900" height="600" fill="#002233"></rect><path d="M0 417L21.5 410.3C43 403.7 86 390.3 128.8 390C171.7 389.7 214.3 402.3 257.2 415.2C300 428 343 441 385.8 426.7C428.7 412.3 471.3 370.7 514.2 356.8C557 343 600 357 642.8 371C685.7 385 728.3 399 771.2 381.2C814 363.3 857 313.7 878.5 288.8L900 264L900 601L878.5 601C857 601 814 601 771.2 601C728.3 601 685.7 601 642.8 601C600 601 557 601 514.2 601C471.3 601 428.7 601 385.8 601C343 601 300 601 257.2 601C214.3 601 171.7 601 128.8 601C86 601 43 601 21.5 601L0 601Z" fill="#ffaa0c" stroke-linecap="round" stroke-linejoin="miter"></path></svg>